<svg viewBox="0 16 72 72" xmlns="http://www.w3.org/2000/svg">
  <g>
    <path fill="#61B2E4" d="M34.7197,47.7793c-1.5285,3.0359-4.1723,5.4814-7.6302,6.6234c-3.4578,1.142-7.0381,0.7521-10.0626-0.7418 c-2.9899-1.5053-5.4468-4.1837-6.5888-7.6416c-1.8044-5.4634,1.9518-14.5273,4.6645-21.0607 c0.4406-1.1043,0.8696-2.128,1.2407-3.0943c0.8737,0.5552,1.8279,1.1221,2.8281,1.7121 c6.0702,3.6327,14.4743,8.6422,16.2901,14.1402C36.6035,41.1745,36.2136,44.7548,34.7197,47.7793z"/>
    <path fill="#61B2E4" d="M59.1155,51.0307c-0.0551,2.0123-0.8567,3.9888-2.4228,5.4715c-1.5662,1.4827-3.5836,2.1751-5.581,2.1357 c-1.9818-0.0542-3.9732-0.8715-5.4559-2.4377c-2.3427-2.4745-2.611-8.2791-2.8016-12.4644 c-0.0418-0.7029-0.0696-1.3597-0.1139-1.9711c0.6081,0.0777,1.2624,0.1413,1.9471,0.2058 c4.1686,0.4192,9.935,0.9889,12.2925,3.4791C58.4625,47.0158,59.1549,49.0333,59.1155,51.0307z"/>
    <path fill="#92D3F5" d="M20.3726,24.2963c-0.4083-0.2454-0.8099-0.4857-1.2012-0.7198c-1.0002-0.59-1.9545-1.157-2.8281-1.7121 c-0.3712,0.9662-0.8001,1.99-1.2407,3.0942C12.3898,31.492,8.6337,40.556,10.438,46.0193c1.142,3.4578,3.5989,6.1363,6.5889,7.6415 c3.0245,1.4939,6.6048,1.8839,10.0626,0.7418c1.6939-0.5594,3.1891-1.4351,4.4569-2.5363 C33.6642,44.8337,26.2177,32.5068,20.3726,24.2963z"/>
    <path fill="#92D3F5" d="M55.376,57.5027c0.2383-6.0273-7.4263-12.5152-11.6592-15.627c-0.3361-0.0347-0.6629-0.0709-0.9766-0.111 c0.0443,0.6115,0.0721,1.2682,0.1138,1.9711c0.1906,4.1853,0.4589,9.9899,2.8016,12.4644 c1.4827,1.5662,3.4741,2.3834,5.4559,2.4377C52.5858,58.6669,54.0695,58.2944,55.376,57.5027z"/>
  </g>
</svg>
